<?xml version="1.0" encoding="UTF-8" standalone="no"?>
<svg
   xmlns:dc="http://purl.org/dc/elements/1.1/"
   xmlns:cc="http://creativecommons.org/ns#"
   xmlns:rdf="http://www.w3.org/1999/02/22-rdf-syntax-ns#"
   xmlns:svg="http://www.w3.org/2000/svg"
   xmlns="http://www.w3.org/2000/svg"
   xml:space="preserve"
   enable-background="new 0 0 1024 768"
   viewBox="0 0 780.70874 327.0195"
   height="327.0195"
   width="780.70874"
   y="0px"
   x="0px"
   id="Calque_1"
   version="1.1"><metadata
     id="metadata37"><rdf:RDF><cc:Work
         rdf:about=""><dc:format>image/svg+xml</dc:format><dc:type
           rdf:resource="http://purl.org/dc/dcmitype/StillImage" /><dc:title></dc:title></cc:Work></rdf:RDF></metadata><defs
     id="defs35" /><g
     transform="translate(-128.76625,-208.50937)"
     id="g3"
     enable-background="new    "><path
       style="fill:#2ba0a0"
       id="path5"
       d="m 184.065,479.713 c 0.392,1.1 0.153,1.803 -0.712,2.111 -0.189,0.068 -0.489,0.121 -0.898,0.16 -0.411,0.041 -0.673,0.08 -0.786,0.121 l -0.105,-0.475 c -0.245,-0.211 -0.575,-0.541 -0.99,-0.99 -0.739,-0.164 -1.466,-0.352 -2.18,-0.566 -0.462,-0.219 -0.88,-0.857 -1.258,-1.918 -0.271,-0.16 -0.593,-0.172 -0.97,-0.037 l -0.502,-1.229 c -1.706,-0.969 -3.395,-1.945 -5.063,-2.93 -2.82,-1.467 -4.797,-2 -5.93,-1.596 -0.453,0.16 -0.832,0.467 -1.14,0.916 -0.255,-0.717 -1.081,-0.824 -2.478,-0.328 -1.775,0.633 -2.464,1.385 -2.066,2.259 l -1.225,0.507 c -0.335,-0.942 -1.127,-1.191 -2.372,-0.748 -0.34,0.121 -0.812,0.406 -1.417,0.855 -0.607,0.449 -1.098,0.74 -1.476,0.875 -0.34,0.121 -0.896,0.203 -1.667,0.244 -0.772,0.043 -1.348,0.131 -1.725,0.264 -1.396,0.498 -2.453,1.352 -3.17,2.563 -0.718,1.212 -0.834,2.496 -0.352,3.852 0.188,0.528 0.364,1.379 0.527,2.551 0.164,1.175 0.353,2.063 0.566,2.665 l 0.523,1.47 0.117,0.148 0.037,-0.076 c 0.483,1.356 1.254,1.91 2.311,1.66 -0.176,0.106 -0.351,0.148 -0.528,0.125 -0.383,0.477 -0.724,1.129 -1.022,1.957 0.375,1.65 0.718,2.908 1.026,3.775 1.073,3.014 2.176,4.32 3.307,3.916 1.883,-0.67 2.604,-1.564 2.165,-2.682 0.393,0.031 0.721,-0.002 0.984,-0.097 0.377,-0.134 0.916,-0.708 1.616,-1.722 0.546,0.102 1.401,0.18 2.566,0.232 0.849,-1.195 1.407,-2.604 1.679,-4.229 -0.197,-0.313 -0.459,-0.813 -0.791,-1.502 0.352,-0.805 0.702,-1.607 1.052,-2.413 0.447,-1.009 0.558,-1.833 0.329,-2.474 2.513,-0.216 4.24,0.995 5.179,3.632 0.269,0.755 0.574,1.909 0.916,3.464 0.342,1.557 0.647,2.711 0.916,3.465 0.335,0.941 0.743,1.73 1.225,2.365 0.497,0.205 1.019,0.297 1.562,0.271 l 0.081,0.227 c 0.201,0.564 0.247,1.439 0.14,2.625 -0.109,1.186 -0.069,2.041 0.118,2.568 0.431,1.207 0.172,2.51 -0.774,3.906 0.331,0.096 0.564,0.332 0.698,0.707 -0.339,0.121 -0.679,0.838 -1.019,2.146 -0.302,0.107 -0.959,-0.486 -1.973,-1.781 -0.559,-0.734 -1.105,-1.494 -1.641,-2.281 -0.922,-1.158 -2.686,-2.291 -5.289,-3.402 -2.795,-1.17 -4.833,-1.527 -6.113,-1.07 -1.093,0.389 -1.543,1.271 -1.351,2.646 0.046,0.365 0.515,2.068 1.405,5.104 0.891,3.038 1.438,4.839 1.639,5.403 1.021,2.865 1.675,4.584 1.965,5.16 0.32,0.184 0.662,0.189 1.025,0.016 l 0.234,0.3 c -0.092,0.458 -0.167,1.144 -0.224,2.054 0.516,0.496 1.307,0.512 2.373,0.047 0.157,0.325 1.513,0.375 4.064,0.145 2.438,-0.188 3.995,-0.404 4.674,-0.646 0.904,-0.322 2.234,-0.881 3.989,-1.676 1.755,-0.795 3.084,-1.354 3.988,-1.676 2.675,-0.953 3.827,-2.488 3.455,-4.606 l 1.187,-0.423 c 0.356,-1.146 1.044,-2.793 2.062,-4.939 1.02,-2.145 1.707,-3.792 2.063,-4.938 -0.199,-0.439 -0.405,-0.959 -0.619,-1.563 -0.148,-0.414 -0.016,-0.695 0.399,-0.844 0.307,0.146 0.79,0.314 1.452,0.502 l 0.243,-0.213 c 0.396,0.877 0.63,1.41 0.697,1.598 0.295,0.83 0.983,3.599 2.067,8.309 -0.515,0.225 -0.726,1.331 -0.635,3.314 0.092,1.985 -0.062,3.133 -0.461,3.444 -1.854,1.469 -7.719,3.961 -17.59,7.478 -0.604,0.215 -1.524,0.49 -2.764,0.825 -1.24,0.335 -2.161,0.61 -2.764,0.825 -0.269,-0.158 -0.664,-0.314 -1.186,-0.469 -0.213,0.117 -0.545,0.32 -0.994,0.608 -0.449,0.288 -0.807,0.478 -1.069,0.571 -0.565,0.201 -1.402,0.416 -2.511,0.641 -1.109,0.226 -1.945,0.438 -2.511,0.64 l -7.63,2.718 -0.231,0.783 -0.444,0.541 c -0.164,0.017 -0.444,-0.054 -0.84,-0.211 -0.395,-0.155 -0.725,-0.188 -0.988,-0.094 -1.847,0.658 -3.356,0.475 -4.528,-0.553 l -0.141,-0.395 c 0.06,-0.191 0.464,-0.844 1.213,-1.961 0.552,-0.833 0.708,-1.527 0.469,-2.078 -0.105,-2.68 -0.983,-6.338 -2.634,-10.972 -0.296,-0.192 -0.645,-0.218 -1.046,-0.074 l -0.978,-5.065 c -0.083,-0.354 -0.489,-0.973 -1.219,-1.859 -0.73,-0.886 -1.271,-1.436 -1.623,-1.65 0.159,-0.863 0.461,-1.926 0.902,-3.188 -0.43,-0.016 -0.808,-0.18 -1.13,-0.49 -0.228,-0.639 -0.628,-1.611 -1.198,-2.916 -0.57,-1.303 -0.977,-2.295 -1.219,-2.974 -0.268,-0.753 -0.549,-1.927 -0.841,-3.522 -0.292,-1.594 -0.572,-2.768 -0.841,-3.521 -0.443,-1.243 -0.969,-2.244 -1.58,-3.004 l -0.848,0.303 -0.395,-0.752 c 0.74,-0.307 1.018,-0.957 0.832,-1.953 -0.043,-0.239 -0.299,-1.018 -0.769,-2.338 -0.416,-1.167 -1.717,-2.254 -3.899,-3.26 -0.064,-1.252 0.988,-2.348 3.158,-3.291 0.393,0.03 0.939,0.133 1.639,0.309 2.936,-0.578 5.723,-1.338 8.36,-2.277 0.866,-0.309 1.63,-0.846 2.292,-1.613 0.66,-0.766 1.028,-1.162 1.104,-1.189 0.226,-0.08 0.604,-0.184 1.132,-0.309 0.529,-0.124 0.925,-0.234 1.189,-0.328 0.339,-0.121 0.646,-0.42 0.92,-0.9 0.275,-0.48 0.469,-0.74 0.582,-0.781 0.715,-0.255 2.335,-0.301 4.855,-0.137 0.033,-0.267 0.238,-0.701 0.619,-1.303 0.527,-0.188 1.35,-0.354 2.467,-0.497 1.116,-0.144 1.957,-0.315 2.522,-0.517 0.904,-0.322 2.248,-0.93 4.033,-1.818 1.785,-0.893 3.129,-1.498 4.033,-1.82 1.997,-0.711 3.536,-0.982 4.616,-0.811 1.079,0.17 2.512,0.855 4.299,2.057 l 0.721,1.666 c 0.28,0.07 0.658,0.234 1.132,0.492 l 1.239,3.66 c 0.176,0.493 0.42,0.94 0.733,1.342 0.429,0.488 0.836,0.621 1.225,0.396 0.049,0.496 0.167,1.244 0.354,2.246 0.014,0.037 0.396,0.393 1.145,1.066 0.513,0.463 0.818,0.846 0.927,1.149 z" /><path
       style="fill:#2ba0a0"
       id="path7"
       d="m 228.685,450.133 -0.82,1.631 c 1.593,2.447 3.142,5.78 4.645,10 0.229,0.641 0.668,1.578 1.32,2.811 0.65,1.232 1.091,2.17 1.319,2.809 0.591,1.66 0.606,4.266 0.047,7.819 0.097,0.392 0.459,0.515 1.089,0.376 0.239,-0.043 0.673,-0.197 1.301,-0.463 0.597,2.633 1.805,6.438 3.621,11.416 1.815,4.98 3.035,8.76 3.658,11.34 -0.169,1.079 -0.647,1.76 -1.439,2.042 -1.658,0.591 -4.315,-0.968 -7.971,-4.677 -0.041,-0.113 -0.094,-0.262 -0.161,-0.451 -0.119,-0.213 -0.19,-0.356 -0.218,-0.432 -0.134,-0.377 -0.04,-0.707 0.283,-0.994 -0.243,-0.082 -0.527,-0.108 -0.855,-0.076 -0.224,0.207 -0.598,0.467 -1.123,0.781 -1.009,-0.446 -2.076,-1.001 -3.203,-1.66 0.047,-0.229 0.16,-0.504 0.344,-0.824 l -0.064,-0.358 c -0.296,-0.235 -0.576,-0.368 -0.843,-0.401 -0.235,0.297 -0.487,0.6 -0.76,0.908 -0.339,0.121 -2.199,-1.105 -5.579,-3.682 -2.711,-2.006 -6.032,-3.584 -9.965,-4.729 l -0.463,-1.301 c -0.679,-0.353 -1.363,-0.725 -2.054,-1.115 -0.87,-0.412 -1.605,-0.512 -2.208,-0.297 l -0.031,-0.625 c -0.477,-0.383 -1.123,-0.768 -1.94,-1.156 -1.333,0.433 -2.301,-0.2 -2.904,-1.896 -1.819,-1.05 -3.637,-2.101 -5.454,-3.152 -3.093,-1.53 -5.243,-2.081 -6.449,-1.651 -0.403,0.652 -0.909,1.619 -1.516,2.896 0.447,0.182 0.771,0.555 0.973,1.119 -0.26,0.432 -0.587,1.121 -0.982,2.069 1.755,1.71 3.298,4.431 4.627,8.161 -0.211,0.244 -0.438,0.623 -0.68,1.133 0.457,1.281 1.265,3.074 2.426,5.377 1.201,2.418 2.028,4.205 2.482,5.359 0.229,0.641 0.519,1.576 0.873,2.81 0.354,1.233 0.626,2.112 0.813,2.64 0.523,1.469 1.525,3.15 3.007,5.043 1.22,1.52 2.452,3.012 3.697,4.479 0.282,0.791 0.063,1.549 -0.655,2.271 -0.582,0.633 -1.306,1.104 -2.173,1.412 -0.451,0.162 -1.852,0.404 -4.198,0.73 -0.979,-0.244 -1.683,-0.971 -2.112,-2.177 -0.215,-0.603 -0.246,-1.228 -0.096,-1.876 0.245,-0.979 -0.264,-3.897 -1.526,-8.756 -1.114,-4.316 -1.973,-7.322 -2.577,-9.019 -0.645,-1.809 -1.745,-4.452 -3.303,-7.931 -1.559,-3.479 -2.652,-6.104 -3.283,-7.875 -0.282,-0.793 -0.465,-2.021 -0.55,-3.689 -0.085,-1.668 -0.269,-2.898 -0.551,-3.689 -1.154,-3.24 -2.184,-4.699 -3.088,-4.377 l -0.182,-0.51 c -0.106,-0.301 -0.579,-0.791 -1.415,-1.471 -0.836,-0.678 -1.327,-1.224 -1.476,-1.64 -0.43,-1.205 0.316,-2.151 2.237,-2.835 0.415,-0.148 1.004,-0.314 1.765,-0.502 0.762,-0.185 1.256,-0.318 1.481,-0.4 0.105,-0.418 0.391,-0.987 0.857,-1.706 2.297,-0.819 4.891,-1.466 7.778,-1.943 3.63,-0.655 6.187,-0.695 7.665,-0.118 0.502,0.457 1.014,0.88 1.534,1.268 0.521,0.389 1.101,0.404 1.737,0.05 0.057,0.872 0.156,1.452 0.302,1.739 0.161,0.453 1.653,1.365 4.478,2.736 2.634,1.314 4.611,2.158 5.936,2.535 l 0.33,1.285 c 0.955,0.891 1.963,1.041 3.026,0.449 l 0.062,0.17 c 0.442,1.242 2.041,2.691 4.794,4.343 2.061,1.134 4.114,2.249 6.161,3.347 l 0.528,-0.125 c 0.348,-0.336 0.646,-0.867 0.897,-1.594 0.41,-0.994 0.669,-1.576 0.78,-1.744 -0.39,-0.496 -0.702,-1.191 -0.935,-2.086 l -0.523,-1.471 -0.201,-0.564 c -0.057,-0.275 -0.234,-0.627 -0.534,-1.051 -0.3,-0.424 -0.49,-0.75 -0.57,-0.977 -0.147,-0.414 -0.234,-1.104 -0.261,-2.072 -0.026,-0.967 -0.113,-1.658 -0.261,-2.072 -0.355,-0.043 -0.865,-0.223 -1.529,-0.538 -0.202,-0.565 -0.384,-1.435 -0.547,-2.608 -0.163,-1.172 -0.346,-2.043 -0.547,-2.607 -0.175,-0.489 -0.335,-0.941 -0.483,-1.356 0.63,-0.521 0.9,-1.255 0.809,-2.199 l -0.686,-0.138 c 1.205,-1.023 1.92,-2.297 2.143,-3.82 -0.504,-0.457 -1.064,-0.66 -1.684,-0.61 l 0.037,-0.077 c 1.042,-1.008 1.959,-1.652 2.75,-1.936 0.414,-0.146 0.98,-0.137 1.699,0.031 0.718,0.17 1.15,0.461 1.299,0.877 0.51,1.431 -0.818,2.71 -3.982,3.837 z m -29.653,10.629 c -0.39,-1.094 -1.207,-1.418 -2.449,-0.975 -1.057,0.375 -2.525,1.494 -4.411,3.354 1.195,0.254 2.45,0.146 3.771,-0.324 2.259,-0.805 3.291,-1.491 3.089,-2.055 z m 25.909,-12.735 c 0.269,0.754 -0.652,1.506 -2.763,2.258 l -0.08,-0.226 c -0.181,-0.147 -0.405,-0.302 -0.674,-0.461 -0.259,-0.842 0.179,-1.466 1.309,-1.868 1.244,-0.443 1.979,-0.342 2.208,0.297 z" /><path
       style="fill:#2ba0a0"
       id="path9"
       d="m 328.231,425.623 c -0.161,0.738 -0.305,1.469 -0.429,2.191 -0.27,1.031 -0.594,1.613 -0.97,1.747 -0.151,0.054 -0.366,0.11 -0.643,0.165 -1.114,-0.625 -2.872,-1.449 -5.275,-2.471 0.326,-0.158 0.429,-0.408 0.307,-0.749 l -0.347,-0.26 c -0.394,-0.03 -2.09,-0.62 -5.09,-1.769 -2.144,-0.771 -3.834,-0.873 -5.075,-0.303 l -0.614,-1.188 c -3.314,-0.482 -6.365,-0.229 -9.154,0.766 -1.885,0.672 -3.648,1.619 -5.292,2.842 -0.095,0.332 -0.068,0.705 0.079,1.119 l -0.311,0.557 c -1.543,1.273 -2.748,3.254 -3.615,5.943 l -1.635,0.775 c -0.979,2.857 -1.379,4.53 -1.205,5.021 0.054,0.151 0.182,0.36 0.383,0.628 0.202,0.27 0.337,0.498 0.404,0.686 0.147,0.416 0.017,1.121 -0.393,2.117 -0.553,1.43 -0.802,3.411 -0.749,5.943 0.052,2.531 0.348,4.553 0.886,6.061 1.384,3.885 3.306,6.242 5.766,7.066 l 0.181,0.51 c 0.081,0.225 0.087,0.541 0.021,0.947 l 0.08,0.229 c 0.135,0.377 1.546,1.447 4.233,3.21 2.688,1.765 4.396,2.772 5.122,3.022 l 0.156,0.264 c -0.272,0.904 -0.348,1.525 -0.227,1.865 0.322,0.906 1.425,1.022 3.31,0.352 -0.051,-0.619 0.014,-1.512 0.192,-2.68 1.369,-0.445 2.993,0.42 4.873,2.595 0.375,-0.38 0.782,-0.782 1.227,-1.206 0.443,-0.424 0.668,-0.865 0.676,-1.32 0.35,0.387 0.733,0.568 1.15,0.547 0.21,-0.244 0.701,-0.652 1.475,-1.227 1.049,1.156 2.175,1.52 3.381,1.09 0.527,-0.188 1.263,-0.566 2.207,-1.137 0.943,-0.57 1.66,-0.941 2.149,-1.117 0.415,-0.146 0.81,-0.288 1.187,-0.422 -0.063,-0.416 0.074,-1.102 0.414,-2.059 l 0.452,-0.161 c 0.263,-0.094 0.579,-0.101 0.948,-0.02 0.148,-0.774 0.645,-1.587 1.487,-2.44 0.953,-1.018 1.539,-1.758 1.757,-2.219 l -0.575,-1.26 c 1.025,-1.172 1.822,-2.751 2.389,-4.736 0.612,-2.213 0.663,-4.035 0.153,-5.469 -0.134,-0.375 -0.262,-0.734 -0.383,-1.074 1.75,-0.453 3.007,0.395 3.772,2.543 0.134,0.377 0.031,0.923 -0.308,1.639 -0.243,0.511 -0.505,1.027 -0.785,1.552 0.119,2.124 -0.228,4.308 -1.042,6.55 -0.205,0.498 -1.131,2.548 -2.777,6.149 -0.603,0.215 -1.208,0.663 -1.813,1.347 l 0.358,0.826 c -0.1,0.079 -0.665,0.578 -1.696,1.497 -0.821,0.675 -1.272,1.196 -1.354,1.565 -0.242,-0.083 -0.516,-0.135 -0.818,-0.154 -0.311,0.323 -0.77,0.763 -1.378,1.318 -0.342,-0.005 -0.739,0.01 -1.194,0.043 -0.415,0.148 -0.663,0.406 -0.744,0.775 0.297,0.234 0.598,0.424 0.904,0.57 l -0.016,0.131 c -0.311,0.324 -0.654,0.553 -1.03,0.688 -0.678,0.241 -1.493,0.043 -2.441,-0.596 -0.662,0.287 -1.042,0.473 -1.139,0.559 -0.273,0.305 -0.287,0.744 -0.037,1.326 -1.497,-0.27 -3.047,-0.029 -4.648,0.719 -0.555,-0.246 -1.386,-0.552 -2.491,-0.914 -0.452,0.16 -1.068,0.486 -1.85,0.977 -0.78,0.49 -1.396,0.816 -1.85,0.977 -0.754,0.27 -1.701,0.141 -2.845,-0.387 -1.143,-0.527 -1.834,-0.77 -2.074,-0.727 -0.226,0.08 -0.532,0.232 -0.92,0.455 -0.388,0.225 -0.639,0.355 -0.751,0.395 -0.779,-0.4 -1.541,-0.809 -2.283,-1.225 -0.512,-0.241 -1.525,-0.348 -3.043,-0.316 l -0.469,0.294 c -0.328,-0.562 -1.335,-1.245 -3.021,-2.044 -2.082,-0.957 -3.252,-1.559 -3.51,-1.809 -1.541,-1.105 -3.518,-3.405 -5.93,-6.898 -2.413,-3.492 -3.98,-6.258 -4.705,-8.293 -2,-5.613 -2.022,-11.604 -0.064,-17.969 1.956,-6.367 5.296,-11.324 10.019,-14.877 0.163,-0.015 0.562,-0.029 1.194,-0.041 0.52,0.027 0.91,-0.008 1.175,-0.102 0.565,-0.201 0.941,-0.574 1.131,-1.117 l -0.422,-0.824 c 0.973,-0.606 3.333,-1.967 7.081,-4.082 0.564,0.154 1.194,0.375 1.892,0.66 0.555,-0.109 1.24,-0.332 2.056,-0.666 1.104,-0.478 1.749,-0.75 1.938,-0.816 0.715,-0.256 1.739,-0.238 3.075,0.051 0.195,-0.282 0.561,-0.688 1.094,-1.219 l 0.134,0.016 c 0.472,0.852 1.288,1.113 2.445,0.785 0.428,-0.109 1.158,-0.082 2.193,0.08 1.034,0.162 1.665,0.203 1.891,0.121 0.415,-0.146 0.907,-1.088 1.479,-2.82 0.571,-1.732 1.141,-2.699 1.705,-2.9 0.828,-0.295 1.781,-0.006 2.854,0.861 1.075,0.871 1.772,1.758 2.096,2.662 0.295,0.83 0.24,2.166 -0.165,4.008 0.258,0.248 0.676,0.227 1.252,-0.064 l 0.442,1.244 c 0.107,0.303 0.209,0.764 0.304,1.389 0.096,0.625 0.196,1.088 0.304,1.389 0.31,0.867 0.896,1.443 1.762,1.728 z" /><path
       style="fill:#2ba0a0"
       id="path11"
       d="m 391.316,422.129 c 2.282,6.406 1.643,13.164 -1.918,20.27 -3.562,7.107 -8.563,11.809 -15.008,14.105 -5.236,1.865 -10.415,2.648 -15.531,2.348 -5.764,-0.324 -10.67,-1.994 -14.716,-5.012 -0.515,-0.369 -0.927,-1.049 -1.237,-2.043 -3.475,-2.244 -5.655,-4.609 -6.541,-7.097 -0.279,-0.069 -0.67,-0.271 -1.17,-0.603 -1.074,-3.014 -1.376,-5.709 -0.906,-8.084 -1.046,-1.029 -1.562,-1.524 -1.549,-1.486 -1.449,-4.07 -1.386,-8.359 0.191,-12.871 1.223,-3.365 3.434,-7.168 6.637,-11.408 l 1.3,-0.463 0.894,-1.783 c 0.188,-0.067 0.527,-0.158 1.02,-0.269 0.49,-0.111 0.85,-0.208 1.075,-0.288 0.339,-0.121 1.11,-1.021 2.316,-2.705 1.206,-1.68 2.147,-2.643 2.826,-2.885 0.301,-0.107 0.758,-0.195 1.37,-0.266 0.613,-0.068 1.068,-0.157 1.371,-0.266 0.39,-0.096 0.93,-0.309 1.619,-0.639 0.688,-0.331 1.203,-0.557 1.542,-0.678 1.507,-0.537 2.976,-0.465 4.407,0.213 l 2.6,-0.926 c 0.15,-0.053 0.357,-0.127 0.621,-0.221 0.289,-0.145 0.357,-0.191 0.207,-0.138 1.434,-0.384 2.597,-0.458 3.486,-0.224 4.479,1.25 7.652,2.412 9.522,3.486 1.396,0.82 4.026,2.896 7.891,6.234 0.682,0.607 2.042,2.754 4.078,6.443 1.945,3.559 3.147,5.977 3.603,7.256 z m -8.833,19.008 c -0.201,-0.566 -0.735,-0.693 -1.602,-0.385 -0.303,0.107 -0.813,0.756 -1.536,1.947 -0.357,-0.168 -0.63,-0.518 -0.818,-1.045 -0.563,-1.584 -0.852,-4.061 -0.863,-7.432 -0.013,-3.371 -0.301,-5.848 -0.864,-7.431 -0.242,-0.679 -0.743,-1.667 -1.503,-2.968 -0.761,-1.299 -1.269,-2.309 -1.523,-3.024 -0.215,-0.603 -0.5,-1.552 -0.855,-2.848 -0.356,-1.296 -0.647,-2.264 -0.876,-2.905 -0.419,-0.105 -1,-0.364 -1.743,-0.779 -2.102,-3.158 -3.83,-5.387 -5.185,-6.688 -1.963,-1.933 -4.371,-3.39 -7.226,-4.368 l -1.243,0.443 c -0.228,-0.641 -0.624,-0.861 -1.189,-0.659 -0.151,0.054 -0.352,0.296 -0.603,0.724 -0.251,0.43 -0.406,0.676 -0.469,0.74 -0.377,0.135 -0.931,0.279 -1.661,0.434 -0.731,0.154 -1.284,0.297 -1.661,0.432 -0.564,0.201 -1.207,0.664 -1.926,1.387 -2.715,2.75 -4.181,4.355 -4.399,4.816 -0.049,0.103 -0.477,2.356 -1.284,6.764 -1.115,1.16 -1.516,3.852 -1.201,8.07 0.237,3.525 0.745,6.381 1.523,8.565 0.537,1.507 1.639,3.62 3.308,6.337 1.669,2.717 2.772,4.83 3.31,6.338 -0.168,0.484 -0.459,1.098 -0.874,1.84 0.267,0.031 1.193,-0.107 2.781,-0.418 1.311,-0.254 2.165,-0.24 2.563,0.043 2.39,1.822 4.769,3.672 7.135,5.545 3.348,2.248 6.04,3.009 8.074,2.283 1.318,-0.469 3.185,-2.174 5.598,-5.114 2.414,-2.94 3.426,-4.956 3.036,-6.05 l -0.564,-0.691 0.013,-0.322 c 0.457,0.092 0.912,0.057 1.363,-0.104 2.485,-0.887 3.474,-2.046 2.964,-3.477 z" /><path
       style="fill:#2ba0a0"
       id="path13"
       d="m 430.741,378.147 -0.82,1.631 c 1.593,2.447 3.143,5.781 4.646,10 0.229,0.643 0.668,1.578 1.319,2.811 0.651,1.233 1.092,2.17 1.319,2.811 0.591,1.658 0.606,4.264 0.047,7.818 0.097,0.391 0.46,0.516 1.09,0.375 0.239,-0.042 0.672,-0.196 1.3,-0.463 0.598,2.633 1.805,6.438 3.621,11.416 1.816,4.98 3.035,8.762 3.658,11.342 -0.168,1.078 -0.646,1.759 -1.438,2.041 -1.658,0.59 -4.315,-0.969 -7.972,-4.676 -0.04,-0.113 -0.094,-0.264 -0.161,-0.453 -0.118,-0.213 -0.19,-0.355 -0.218,-0.432 -0.134,-0.375 -0.04,-0.707 0.283,-0.993 -0.242,-0.083 -0.527,-0.108 -0.855,-0.077 -0.224,0.207 -0.598,0.469 -1.123,0.781 -1.008,-0.445 -2.076,-1 -3.203,-1.66 0.047,-0.229 0.16,-0.504 0.344,-0.824 l -0.063,-0.357 c -0.296,-0.234 -0.577,-0.368 -0.844,-0.4 -0.234,0.295 -0.486,0.598 -0.76,0.906 -0.339,0.121 -2.199,-1.105 -5.578,-3.681 -2.712,-2.007 -6.033,-3.583 -9.966,-4.729 l -0.463,-1.3 c -0.678,-0.353 -1.363,-0.726 -2.053,-1.116 -0.869,-0.412 -1.605,-0.512 -2.208,-0.297 l -0.032,-0.625 c -0.476,-0.382 -1.123,-0.768 -1.94,-1.156 -1.332,0.434 -2.3,-0.199 -2.904,-1.895 -1.817,-1.051 -3.637,-2.102 -5.454,-3.152 -3.093,-1.53 -5.242,-2.081 -6.448,-1.652 -0.404,0.654 -0.909,1.619 -1.516,2.897 0.446,0.181 0.771,0.554 0.972,1.118 -0.26,0.434 -0.586,1.123 -0.982,2.07 1.756,1.71 3.298,4.43 4.627,8.16 -0.21,0.246 -0.437,0.623 -0.679,1.134 0.456,1.281 1.264,3.073 2.425,5.378 1.201,2.418 2.028,4.203 2.482,5.357 0.229,0.641 0.52,1.578 0.873,2.811 0.354,1.232 0.626,2.112 0.814,2.64 0.523,1.47 1.525,3.15 3.006,5.044 1.221,1.519 2.453,3.012 3.698,4.479 0.281,0.791 0.063,1.549 -0.655,2.271 -0.582,0.633 -1.307,1.103 -2.173,1.411 -0.452,0.161 -1.853,0.405 -4.198,0.73 -0.979,-0.245 -1.684,-0.972 -2.113,-2.177 -0.215,-0.604 -0.246,-1.229 -0.095,-1.877 0.245,-0.979 -0.265,-3.896 -1.526,-8.754 -1.115,-4.318 -1.974,-7.324 -2.577,-9.02 -0.645,-1.809 -1.745,-4.451 -3.303,-7.932 -1.559,-3.479 -2.653,-6.104 -3.284,-7.874 -0.281,-0.792 -0.465,-2.022 -0.549,-3.69 -0.085,-1.668 -0.27,-2.898 -0.551,-3.689 -1.154,-3.238 -2.184,-4.699 -3.088,-4.377 l -0.182,-0.509 c -0.107,-0.301 -0.579,-0.79 -1.416,-1.471 -0.836,-0.677 -1.327,-1.224 -1.475,-1.64 -0.43,-1.205 0.316,-2.15 2.237,-2.836 0.414,-0.146 1.003,-0.313 1.765,-0.5 0.762,-0.186 1.255,-0.32 1.481,-0.4 0.105,-0.42 0.39,-0.988 0.856,-1.707 2.299,-0.818 4.892,-1.467 7.779,-1.943 3.629,-0.656 6.186,-0.695 7.664,-0.119 0.503,0.459 1.015,0.881 1.535,1.269 0.52,0.388 1.1,0.404 1.736,0.05 0.057,0.873 0.157,1.453 0.303,1.74 0.161,0.451 1.653,1.365 4.478,2.736 2.634,1.313 4.61,2.156 5.935,2.533 l 0.33,1.285 c 0.955,0.891 1.964,1.042 3.027,0.449 l 0.061,0.17 c 0.442,1.244 2.041,2.691 4.795,4.344 2.061,1.134 4.114,2.25 6.16,3.346 l 0.529,-0.125 c 0.347,-0.334 0.646,-0.867 0.896,-1.594 0.411,-0.994 0.67,-1.576 0.781,-1.742 -0.391,-0.498 -0.702,-1.193 -0.935,-2.088 l -0.524,-1.469 -0.201,-0.564 c -0.057,-0.277 -0.234,-0.629 -0.533,-1.053 -0.301,-0.424 -0.49,-0.749 -0.571,-0.975 -0.147,-0.414 -0.233,-1.105 -0.261,-2.073 -0.025,-0.968 -0.112,-1.657 -0.26,-2.073 -0.356,-0.042 -0.866,-0.223 -1.53,-0.537 -0.201,-0.566 -0.383,-1.434 -0.547,-2.608 -0.163,-1.173 -0.345,-2.042 -0.546,-2.607 -0.175,-0.49 -0.336,-0.941 -0.484,-1.357 0.631,-0.521 0.901,-1.254 0.81,-2.199 l -0.687,-0.137 c 1.206,-1.024 1.92,-2.298 2.143,-3.821 -0.504,-0.457 -1.064,-0.661 -1.683,-0.61 l 0.036,-0.076 c 1.043,-1.009 1.959,-1.653 2.75,-1.936 0.414,-0.147 0.98,-0.137 1.699,0.031 0.718,0.169 1.151,0.46 1.299,0.875 0.512,1.431 -0.817,2.71 -3.982,3.837 z m -29.652,10.628 c -0.39,-1.092 -1.206,-1.418 -2.449,-0.975 -1.056,0.377 -2.525,1.494 -4.41,3.354 1.194,0.256 2.45,0.146 3.77,-0.324 2.26,-0.805 3.29,-1.49 3.089,-2.055 z m 25.908,-12.733 c 0.269,0.753 -0.652,1.505 -2.762,2.257 l -0.081,-0.225 c -0.181,-0.148 -0.405,-0.301 -0.673,-0.461 -0.258,-0.842 0.179,-1.465 1.309,-1.867 1.243,-0.444 1.98,-0.344 2.207,0.296 z" /><path
       style="fill:#2ba0a0"
       id="path15"
       d="m 506.405,392.082 c 0.282,0.793 0.335,2.728 0.157,5.805 -0.172,2.736 -1.422,5.305 -3.752,7.705 -0.842,0.854 -3.146,2.672 -6.909,5.456 -0.388,0.818 -0.812,1.478 -1.269,1.981 -0.904,0.322 -2.199,0.889 -3.885,1.701 -1.685,0.813 -2.961,1.373 -3.827,1.682 -7.95,2.834 -13.243,4.188 -15.876,4.064 -1.726,-0.191 -3.469,-0.377 -5.231,-0.557 -2.674,-0.236 -4.237,-0.273 -4.689,-0.113 -1.13,0.402 -2.406,2.068 -3.826,4.994 l -1.045,-0.074 c -0.981,-1.561 -1.753,-3.133 -2.316,-4.715 -0.39,-1.093 -0.683,-2.391 -0.877,-3.892 -0.309,-2.056 -0.143,-3.198 0.499,-3.427 0.188,-0.066 0.575,-0.109 1.164,-0.127 0.588,-0.02 0.982,-0.043 1.185,-0.072 6.133,2.91 10.475,4.611 13.028,5.104 3.898,0.691 8.484,0.098 13.76,-1.781 3.09,-1.102 6.395,-2.852 9.913,-5.252 3.655,-2.49 6.464,-4.978 8.425,-7.459 1.171,-1.479 1.449,-3.086 0.832,-4.818 -1.088,-3.053 -2.992,-4.581 -5.712,-4.59 -7.401,-0.039 -15.437,1.486 -24.103,4.574 -0.127,-0.592 -0.535,-0.786 -1.227,-0.582 l 0.303,-0.045 -0.34,0.121 -1.639,0.584 c -0.664,0.28 -1.746,0.347 -3.24,0.199 -1.066,-0.131 -2.145,-0.233 -3.233,-0.313 -0.91,0.068 -2.282,0.092 -4.116,0.064 -1.166,-0.051 -2.688,-0.57 -4.568,-1.557 -2.786,-1.385 -4.393,-2.257 -4.816,-2.615 -0.31,-0.867 -0.432,-2.224 -0.369,-4.072 0.063,-1.849 -0.059,-3.205 -0.367,-4.072 -0.135,-0.377 -0.49,-0.42 -1.065,-0.131 0.01,0.506 -0.216,1.246 -0.677,2.215 l -0.508,0.182 c -0.565,0.201 -0.901,0.152 -1.009,-0.15 -0.993,-2.788 -1.217,-5.319 -0.669,-7.596 0.973,-4.423 2.004,-7.486 3.096,-9.191 1.322,-2.127 3.729,-4.195 7.217,-6.201 2.926,-1.68 5.5,-2.916 7.724,-3.708 6.104,-2.174 12.511,-2.546 19.221,-1.115 0.863,0.16 1.747,0.078 2.651,-0.245 1.131,-0.403 2.319,-1.653 3.567,-3.755 0.753,-0.269 1.551,0.064 2.392,0.995 0.699,0.771 1.197,1.57 1.492,2.398 0.201,0.565 0.424,1.399 0.668,2.501 0.244,1.103 0.453,1.898 0.628,2.388 0.207,0.224 0.552,0.419 1.036,0.586 0.484,0.167 0.784,0.294 0.9,0.38 -0.049,0.103 -0.051,0.336 -0.005,0.703 0.063,0.656 0.147,1.667 0.252,3.031 0.104,1.365 -0.108,2.141 -0.635,2.329 -0.189,0.067 -0.511,0.118 -0.966,0.152 -2.172,-1.688 -3.92,-3.019 -5.242,-3.991 -3.086,-2.341 -4.835,-3.438 -5.25,-3.29 l -0.174,0.763 c -0.413,-0.447 -0.82,-0.875 -1.222,-1.285 -0.632,-0.581 -1.117,-0.812 -1.456,-0.691 -5.154,-2.07 -11.198,-1.871 -18.131,0.599 -2.186,0.779 -4.367,2.045 -6.545,3.796 -2.576,2.064 -4.017,4.043 -4.319,5.935 -0.036,0.14 -0.326,1.05 -0.874,2.731 -0.235,0.891 -0.164,1.864 0.212,2.918 0.537,1.508 1.522,2.876 2.959,4.105 1.436,1.23 2.962,2.087 4.579,2.572 0.483,0.168 2.187,-0.121 5.106,-0.863 0.147,0.416 0.609,0.76 1.388,1.034 6.205,-0.341 13.014,-1.134 20.428,-2.374 3.015,-0.479 6.207,-0.278 9.577,0.602 l 0.194,0.185 c 0.015,0.166 0.072,0.474 0.17,0.927 0.099,0.453 0.188,0.793 0.268,1.019 0.362,1.018 0.85,1.375 1.465,1.071 0.282,-0.397 0.363,-0.767 0.242,-1.106 -0.134,-0.375 -0.483,-0.76 -1.049,-1.154 l 0.546,-0.258 c 0.452,-0.162 1.618,-0.046 3.499,0.346 l 0.156,0.262 c -0.18,0.447 -0.477,1.105 -0.889,1.973 0.261,0.376 0.711,0.746 1.352,1.111 l 0.488,-0.238 c 0.218,-0.459 0.189,-0.957 -0.088,-1.497 l 0.375,-0.196 c 0.302,-0.107 0.94,0.197 1.917,0.908 0.215,0.604 0.015,1.291 -0.603,2.063 -0.521,0.567 -1.047,1.117 -1.58,1.646 1.192,0.127 2.33,1.059 3.416,2.795 0.507,-0.604 0.488,-2.084 -0.053,-4.439 0.861,0.627 1.459,1.413 1.794,2.352 z" /><path
       style="fill:#2ba0a0"
       id="path17"
       d="m 505.676,349.277 -0.627,0.922 c 0.176,1.208 0.044,2.27 -0.393,3.188 -0.613,1.023 -1.231,2.026 -1.857,3.011 -0.222,0.334 -0.354,0.973 -0.399,1.92 -0.079,1.088 -0.166,1.796 -0.262,2.126 0.067,0.188 0.234,0.297 0.5,0.329 0.127,-0.001 0.303,-0.043 0.528,-0.124 0.29,0.574 0.535,1.143 0.735,1.707 0.121,0.338 -0.011,0.682 -0.396,1.03 -0.385,0.348 -0.607,0.619 -0.667,0.81 0.067,0.188 0.183,0.453 0.348,0.797 0.164,0.344 0.267,0.571 0.307,0.684 0.509,1.428 -0.085,2.443 -1.78,3.047 -0.904,0.322 -2.017,0.359 -3.337,0.109 0.245,-0.383 0.262,-0.875 0.048,-1.477 -0.576,-0.303 -1.051,-0.621 -1.423,-0.954 -0.1,-1.827 -0.395,-4.622 -0.886,-8.385 -0.616,-3.04 -0.622,-5.323 -0.02,-6.85 -0.295,-0.827 -0.141,-1.348 0.463,-1.563 0.112,-0.04 0.655,-0.064 1.629,-0.073 0.417,-0.021 1.641,-0.161 3.673,-0.418 1.387,-0.156 2.66,-0.101 3.816,0.164 z m 44.088,-9.265 c 0.376,1.055 0.543,2.122 0.501,3.197 l -1.319,0.408 c -2,-0.846 -4.969,-2.208 -8.908,-4.089 l -1.85,0.529 -0.104,-0.289 c -0.515,-0.25 -1.254,-0.42 -2.22,-0.51 -1.463,-0.172 -2.238,-0.264 -2.328,-0.276 -0.429,0.109 -0.75,0.16 -0.966,0.148 -0.339,0.121 -0.562,0.392 -0.667,0.811 l 0.512,1.792 c -0.852,1.068 -1.522,2.284 -2.013,3.647 -0.537,1.593 -0.616,2.917 -0.241,3.972 0.041,0.113 0.165,0.346 0.375,0.694 2.588,4.046 4.524,7.814 5.811,11.305 0.244,0.21 0.694,0.401 1.35,0.571 0.655,0.171 1.124,0.354 1.406,0.55 0.242,0.678 0.248,1.472 0.021,2.381 -0.229,0.91 -0.625,1.528 -1.188,1.855 0.371,0.208 0.848,0.23 1.425,0.065 0.691,0.987 1.251,2.082 1.681,3.287 0.336,0.942 0.72,2.376 1.151,4.303 0.431,1.927 0.809,3.343 1.131,4.247 0.644,1.809 1.239,2.765 1.785,2.867 -0.461,0.971 -0.449,2.135 0.034,3.49 0.551,1.546 1.109,2.578 1.677,3.098 0.567,0.521 1.619,0.91 3.154,1.168 -0.202,0.031 -0.306,0.152 -0.315,0.367 -0.008,0.217 0.047,0.43 0.165,0.643 0.167,0.111 0.423,0.232 0.767,0.363 0.188,0.529 -0.634,1.141 -2.467,1.835 -1.834,0.696 -2.588,1.495 -2.266,2.399 -2.654,1.371 -7.128,3.176 -13.421,5.418 -0.457,-0.092 -1.137,-0.21 -2.037,-0.356 -0.11,-0.427 -0.042,-0.771 0.206,-1.028 -0.188,0.066 -0.355,0.072 -0.502,0.02 -0.146,-0.055 -0.229,-0.162 -0.244,-0.328 l -0.008,-0.379 c 0.382,-0.476 0.931,-1.201 1.645,-2.178 1.189,-1.783 0.76,-5.559 -1.295,-11.322 -0.335,-0.942 -0.92,-2.284 -1.753,-4.025 -0.833,-1.741 -1.409,-3.064 -1.731,-3.968 -0.175,-0.49 -0.235,-1.255 -0.18,-2.294 0.054,-1.038 -0.006,-1.802 -0.181,-2.292 -0.293,-0.106 -0.683,-0.308 -1.17,-0.602 -0.618,-1.138 -1.329,-2.838 -2.135,-5.1 -0.215,-0.602 -0.503,-2.007 -0.864,-4.214 l -0.13,0.174 -0.081,-0.227 -0.342,-0.96 -1.449,-4.07 c -0.229,-0.64 -0.439,-1.616 -0.629,-2.928 -0.192,-1.312 -0.402,-2.287 -0.631,-2.929 -0.389,-1.093 -1.246,-2.188 -2.572,-3.287 l -0.848,0.302 c -0.214,-0.603 -0.488,-1.015 -0.822,-1.236 -1.59,0.185 -2.753,0.26 -3.487,0.224 -1.315,0.003 -2.472,-0.201 -3.467,-0.612 l 1.87,-0.474 c 0.838,-1.105 1.953,-1.907 3.348,-2.404 0.753,-0.268 1.943,-0.352 3.571,-0.253 1.628,0.1 2.817,0.015 3.572,-0.254 0.829,-0.295 2.022,-1.176 3.579,-2.645 1.559,-1.467 2.507,-2.262 2.846,-2.383 0.415,-0.147 1.465,-0.15 3.15,-0.007 1.686,0.143 2.868,0.093 3.546,-0.149 0.452,-0.161 0.871,-0.416 1.256,-0.766 l -0.286,-0.981 c 0.146,-0.307 0.389,-0.521 0.727,-0.641 0.189,-0.067 0.518,-0.098 0.985,-0.096 0.468,0.003 0.784,-0.003 0.948,-0.02 0.175,0.49 0.433,0.738 0.774,0.743 0.415,-0.148 0.938,-0.557 1.569,-1.228 0.631,-0.671 1.154,-1.08 1.569,-1.228 0.489,-0.175 1.013,-0.017 1.57,0.474 -0.282,0.402 -0.597,1.009 -0.944,1.821 0.477,1.337 1.26,1.811 2.354,1.421 0.264,-0.094 0.545,-0.257 0.844,-0.492 l 0.37,1.396 c 0.067,0.189 0.199,0.291 0.396,0.306 0.197,0.015 0.408,-0.019 0.633,-0.099 0.197,-0.282 0.292,-0.613 0.284,-0.993 -0.221,-0.26 -0.546,-0.698 -0.976,-1.308 l -0.064,-0.359 c 2.156,0.21 3.671,1.539 4.543,3.988 z" /><path
       style="fill:#2ba0a0"
       id="path19"
       d="m 603.45,325.152 c -0.112,1.357 0.314,3.328 1.278,5.914 -0.271,0.311 -0.571,0.841 -0.897,1.594 0.366,0.55 0.792,1.269 1.278,2.156 -1.354,3.709 -2.653,6.317 -3.901,7.823 -0.875,1.118 -2.296,2.198 -4.26,3.238 -2.291,1.198 -3.648,1.979 -4.07,2.341 -1.069,0.933 -1.368,2.06 -0.898,3.378 0.188,0.528 0.496,1.097 0.927,1.708 -0.829,0.295 -1.144,0.726 -0.942,1.291 0.216,0.604 1.236,1.354 3.064,2.252 1.827,0.9 2.809,1.538 2.943,1.914 0.107,0.302 0.185,0.698 0.232,1.191 0.051,0.619 0.109,1.022 0.178,1.211 0.026,0.075 0.56,0.5 1.6,1.276 0.055,0.152 0.046,0.292 -0.023,0.423 -0.071,0.131 -0.21,0.233 -0.416,0.307 0.3,0.361 0.957,0.764 1.973,1.209 0.25,-0.259 0.461,-0.663 0.63,-1.212 0.169,-0.548 0.327,-0.913 0.477,-1.094 0.761,-0.271 1.376,-0.045 1.85,0.679 0.601,0.847 1.367,1.254 2.298,1.219 l 0.215,0.242 c 0.008,0.38 0.024,0.905 0.051,1.574 0.729,0.377 1.395,0.458 1.998,0.243 0.346,0.855 1.563,1.886 3.65,3.096 l -0.529,0.124 c -0.452,0.161 -0.68,0.774 -0.684,1.836 -1.66,1.06 -2.813,1.703 -3.452,1.931 -0.641,0.229 -1.62,0.429 -2.938,0.601 -1.318,0.173 -2.279,0.367 -2.882,0.581 -1.771,0.631 -3.195,1.521 -4.272,2.668 -0.904,0.322 -1.796,0.385 -2.672,0.188 -1.031,-0.27 -1.693,-0.819 -1.988,-1.649 -0.175,-0.488 -0.018,-1.479 0.47,-2.97 0.489,-1.489 0.959,-2.316 1.411,-2.477 0.112,-0.041 0.334,-0.012 0.665,0.082 0.331,0.095 0.572,0.115 0.723,0.061 0.527,-0.188 0.573,-1.074 0.136,-2.66 -0.299,-0.955 -0.577,-1.917 -0.838,-2.886 -0.089,-0.011 -0.658,10e-4 -1.707,0.035 -0.67,0.026 -1.173,-0.133 -1.51,-0.481 -0.357,0.426 -0.469,0.826 -0.335,1.202 0.054,0.151 0.44,0.523 1.161,1.115 0.721,0.594 1.115,0.982 1.182,1.172 0.35,0.979 0.052,1.637 -0.89,1.972 -0.829,0.296 -2.557,-0.384 -5.185,-2.038 l -0.116,-0.149 c -0.161,-0.451 -0.152,-0.9 0.029,-1.348 -0.524,-0.279 -1.373,-0.635 -2.546,-1.067 l -0.816,0.928 -0.189,0.003 -0.303,-0.847 c 0.904,-0.322 1.236,-0.823 0.994,-1.501 -0.362,-1.018 -1.84,-2.379 -4.433,-4.089 -2.594,-1.709 -4.357,-2.397 -5.294,-2.063 -0.375,0.134 -0.785,0.642 -1.23,1.521 -0.446,0.882 -0.702,1.587 -0.766,2.119 0.914,1.374 1.472,2.342 1.673,2.908 0.148,0.415 0.181,0.807 0.101,1.174 l -0.845,0.492 -0.085,0.476 c 0.521,0.155 1.135,0.446 1.84,0.874 0.109,0.428 0.084,1.339 -0.077,2.734 -0.161,1.395 -0.141,2.375 0.061,2.94 0.296,0.83 1.029,1.758 2.202,2.783 0.241,0.678 0.01,2.057 -0.693,4.132 0.244,0.21 0.523,0.281 0.839,0.21 0.105,-1.014 0.516,-1.649 1.232,-1.904 0.376,-0.134 0.984,0.202 1.823,1.006 0.543,0.572 1.099,1.117 1.666,1.637 -1.621,0.577 -4.011,1.524 -7.173,2.842 -3.161,1.317 -5.552,2.264 -7.172,2.842 -1.206,0.43 -2.341,0.643 -3.402,0.639 -0.345,-0.133 -0.729,-0.377 -1.153,-0.736 l 0.182,-0.383 c 1.936,-1.241 2.091,-4.142 0.467,-8.701 -0.752,-2.11 -1.816,-3.429 -3.193,-3.958 0.314,-0.707 0.549,-1.3 0.703,-1.779 -0.241,-0.679 -0.754,-1.61 -1.538,-2.797 -0.783,-1.186 -1.296,-2.117 -1.537,-2.796 -0.241,-0.678 -0.468,-1.829 -0.676,-3.453 -0.206,-1.498 -0.485,-2.63 -0.84,-3.395 0.337,-0.206 0.557,-0.454 0.657,-0.745 -0.106,-0.301 -0.32,-0.543 -0.641,-0.726 l -0.961,0.342 c -0.243,-1.994 -0.841,-4.328 -1.794,-7.004 -0.456,-1.281 -1.874,-4.725 -4.255,-10.332 -0.193,-0.187 -0.51,-0.36 -0.949,-0.521 -0.44,-0.163 -0.736,-0.28 -0.891,-0.353 0.242,-0.213 0.442,-0.604 0.603,-1.17 -0.401,-0.367 -0.99,-1.006 -1.767,-1.919 -0.007,-0.379 0.076,-0.684 0.248,-0.915 -1.278,-0.012 -2.071,-0.451 -2.381,-1.317 -0.523,-1.471 0.27,-2.581 2.38,-3.333 0.941,-0.335 2.292,-0.476 4.052,-0.425 1.395,0.1 2.788,0.197 4.182,0.294 0.829,-0.295 2.076,-1.206 3.74,-2.734 1.663,-1.525 3.023,-2.479 4.078,-2.854 6.67,-2.376 14.795,-4.356 24.378,-5.946 0.256,0.717 0.686,1.03 1.291,0.942 2.083,-0.232 4.499,0.053 7.248,0.857 0.904,-0.322 1.758,-0.073 2.558,0.744 0.129,0.125 0.716,0.935 1.759,2.431 0.608,0.887 1.153,1.224 1.629,1.01 z m -12.354,6.979 c -1.285,-3.608 -4.073,-5.961 -8.362,-7.06 -3.781,-0.981 -7.553,-0.803 -11.313,0.537 -4.286,1.527 -6.824,3.619 -7.616,6.273 -0.625,2.171 -0.16,5.438 1.394,9.8 2.438,6.845 4.907,10.858 7.406,12.044 1.213,0.077 3.129,-0.31 5.75,-1.159 2.457,-0.833 4.395,-1.162 5.812,-0.99 0.054,-1.039 0.235,-1.718 0.545,-2.041 0.223,-0.207 0.879,-0.505 1.969,-0.893 0.751,-0.268 1.329,-0.133 1.732,0.401 -0.325,-2.813 0.339,-4.515 1.994,-5.104 l 0.52,1.279 c 0.418,0.106 0.815,0.092 1.191,-0.042 0.527,-0.188 1.024,-0.811 1.495,-1.87 l -1.15,-0.546 0.849,-0.302 0.19,-0.895 c -0.333,-0.219 -0.809,-0.601 -1.426,-1.143 0.193,-1.001 0.186,-2.396 -0.026,-4.184 -0.234,-1.609 -0.553,-2.978 -0.954,-4.105 z" /><path
       style="fill:#2ba0a0"
       id="path21"
       d="m 654.904,295.802 c -0.49,0.175 -0.73,0.452 -0.723,0.831 -0.022,0.178 0.082,0.587 0.31,1.227 l -0.282,0.101 c -0.844,0.259 -1.333,1.028 -1.471,2.309 -0.044,0.355 -0.254,0.749 -0.631,1.18 -0.379,0.432 -0.74,0.816 -1.087,1.152 -0.049,0.697 0.282,2.043 0.993,4.041 0.188,0.528 0.648,1.044 1.38,1.547 0.256,0.717 0.536,1.806 0.845,3.266 0.308,1.462 0.59,2.551 0.845,3.266 0.456,1.282 1.233,3.191 2.329,5.731 1.096,2.54 1.871,4.45 2.328,5.731 3.369,9.458 4.716,15.56 4.037,18.306 -0.759,3.116 -2.309,5.854 -4.65,8.218 -2.221,2.235 -4.931,3.923 -8.133,5.063 -0.302,0.107 -0.769,0.2 -1.399,0.275 -0.631,0.077 -1.097,0.168 -1.398,0.275 -0.565,0.201 -1.36,0.59 -2.387,1.168 -1.025,0.579 -1.821,0.968 -2.386,1.169 -4.258,1.517 -7.898,2.029 -10.918,1.533 -2.438,-0.405 -5.845,-1.804 -10.221,-4.193 -0.406,-0.662 -1.293,-1.662 -2.661,-3.001 -1.227,-1.177 -2.032,-2.248 -2.419,-3.215 0.054,-0.443 0.078,-1.088 0.074,-1.937 -0.358,-0.169 -0.698,-0.708 -1.02,-1.612 0.053,0.151 -0.738,-2.667 -2.375,-8.453 -0.164,-0.578 -0.465,-1.363 -0.902,-2.353 -0.492,-1.142 -0.811,-1.919 -0.959,-2.334 -0.43,-1.205 -0.984,-3.058 -1.66,-5.555 -0.678,-2.498 -1.23,-4.349 -1.66,-5.555 -0.148,-0.414 -0.408,-1.023 -0.778,-1.825 -0.371,-0.802 -0.63,-1.41 -0.778,-1.825 -0.066,-0.188 -0.074,-0.567 -0.022,-1.139 0.052,-0.569 0.069,-0.937 0.054,-1.101 -2.25,-2.383 -4.462,-3.463 -6.633,-3.242 0.818,-0.801 1.906,-1.443 3.263,-1.927 0.979,-0.349 2.494,-0.508 4.544,-0.473 2.051,0.033 3.547,-0.117 4.488,-0.453 0.151,-0.054 0.393,-0.213 0.722,-0.48 0.329,-0.265 0.563,-0.445 0.701,-0.536 1.686,-2.299 3.188,-3.684 4.507,-4.154 1.28,-0.456 2.123,-0.118 2.526,1.014 0.147,0.415 -0.087,1.455 -0.704,3.12 -0.616,1.665 -0.875,2.757 -0.775,3.273 0.252,1.187 0.68,2.626 1.285,4.324 0.859,2.414 2.222,6.031 4.088,10.85 1.865,4.819 3.229,8.436 4.088,10.849 0.377,1.057 0.845,2.698 1.403,4.921 0.56,2.224 1.034,3.883 1.423,4.976 0.605,1.697 1.873,3.117 3.806,4.256 1.214,0.672 3.022,1.411 5.427,2.211 l 1.299,-0.463 c 0.349,0.981 3.513,0.404 9.492,-1.726 0.376,-0.134 0.463,-0.483 0.262,-1.048 1.058,-0.122 1.7,-0.224 1.927,-0.305 l 0.692,-0.373 c 2.814,-3.636 4.5,-6.699 5.055,-9.189 0.585,-2.757 0.146,-6.188 -1.316,-10.295 -0.537,-1.507 -1.367,-3.749 -2.491,-6.724 -1.124,-2.975 -1.954,-5.216 -2.491,-6.724 l 0.041,0.113 -0.021,-0.058 -0.081,-0.226 -0.302,-0.848 -1.481,-4.695 c -0.419,-1.294 -1.181,-3.136 -2.286,-5.523 -1.105,-2.387 -1.866,-4.165 -2.282,-5.333 -0.107,-0.301 -0.39,-0.763 -0.845,-1.387 -0.456,-0.623 -0.731,-1.129 -0.828,-1.52 -0.575,-0.304 -1.125,-0.596 -1.649,-0.878 -0.742,-0.414 -1.181,-0.81 -1.314,-1.187 l 0.357,-0.064 c 0.83,-0.295 1.997,-0.891 3.504,-1.789 1.505,-0.896 2.673,-1.494 3.502,-1.789 2.105,-0.751 3.714,-0.346 4.822,1.211 z m -16.217,62.466 c -0.229,-0.641 -1.227,-1.208 -2.995,-1.704 -1.769,-0.495 -3.013,-0.615 -3.728,-0.36 -1.356,0.483 -2.491,1.292 -3.404,2.423 0.121,0.34 0.603,0.381 1.445,0.123 l 0.244,0.867 c 0.208,0.224 0.52,0.325 0.938,0.304 0.223,-0.207 0.577,-0.524 1.063,-0.952 l 0.246,-0.024 0.084,0.416 c 0.107,0.303 0.407,0.428 0.899,0.38 0.224,-0.207 0.37,-0.45 0.44,-0.73 l 0.125,0.529 c 0.095,0.264 0.308,0.506 0.641,0.728 0.377,-0.134 0.917,-0.2 1.619,-0.196 0.702,0.005 1.185,-0.04 1.449,-0.133 0.904,-0.324 1.215,-0.88 0.934,-1.671 z m -4.606,0.303 c -0.059,0.191 -0.113,0.338 -0.162,0.439 -0.029,-0.201 0.025,-0.347 0.162,-0.439 z m 0.263,-0.157 0.304,-0.044 -0.566,0.201 0.262,-0.157 z" /><path
       style="fill:#2ba0a0"
       id="path23"
       d="m 715.389,287.693 c -0.161,0.738 -0.304,1.468 -0.429,2.191 -0.271,1.031 -0.594,1.613 -0.97,1.747 -0.151,0.054 -0.366,0.109 -0.643,0.164 -1.114,-0.625 -2.872,-1.449 -5.274,-2.471 0.325,-0.157 0.428,-0.407 0.307,-0.748 l -0.348,-0.26 c -0.394,-0.03 -2.09,-0.62 -5.09,-1.77 -2.143,-0.771 -3.834,-0.871 -5.075,-0.302 l -0.614,-1.188 c -3.314,-0.482 -6.365,-0.228 -9.154,0.766 -1.884,0.671 -3.648,1.619 -5.292,2.842 -0.095,0.333 -0.067,0.704 0.08,1.119 l -0.312,0.557 c -1.543,1.272 -2.748,3.254 -3.615,5.944 l -1.635,0.773 c -0.979,2.858 -1.379,4.531 -1.204,5.021 0.054,0.15 0.18,0.36 0.382,0.628 0.202,0.27 0.337,0.497 0.404,0.686 0.147,0.415 0.017,1.121 -0.393,2.117 -0.552,1.43 -0.802,3.411 -0.749,5.942 0.052,2.533 0.348,4.553 0.886,6.062 1.384,3.886 3.307,6.241 5.766,7.065 l 0.182,0.51 c 0.08,0.226 0.086,0.542 0.019,0.949 l 0.081,0.227 c 0.135,0.378 1.546,1.448 4.233,3.211 2.688,1.764 4.396,2.772 5.122,3.022 l 0.156,0.263 c -0.272,0.905 -0.348,1.526 -0.227,1.866 0.322,0.906 1.425,1.022 3.31,0.351 -0.051,-0.618 0.014,-1.511 0.192,-2.68 1.37,-0.445 2.994,0.42 4.873,2.596 0.375,-0.38 0.783,-0.782 1.227,-1.207 0.444,-0.425 0.668,-0.864 0.677,-1.319 0.35,0.386 0.732,0.568 1.149,0.546 0.21,-0.244 0.701,-0.653 1.475,-1.226 1.049,1.155 2.176,1.518 3.381,1.088 0.527,-0.188 1.264,-0.566 2.207,-1.137 0.943,-0.569 1.66,-0.941 2.15,-1.116 0.414,-0.147 0.809,-0.288 1.187,-0.422 -0.063,-0.416 0.073,-1.102 0.413,-2.058 l 0.451,-0.161 c 0.264,-0.094 0.581,-0.1 0.949,-0.02 0.148,-0.774 0.645,-1.588 1.487,-2.44 0.953,-1.019 1.539,-1.758 1.758,-2.219 l -0.576,-1.259 c 1.025,-1.172 1.821,-2.751 2.389,-4.737 0.612,-2.214 0.665,-4.036 0.154,-5.468 -0.134,-0.376 -0.262,-0.735 -0.383,-1.074 1.749,-0.453 3.006,0.394 3.771,2.542 0.135,0.377 0.031,0.924 -0.307,1.639 -0.244,0.511 -0.505,1.029 -0.785,1.552 0.12,2.123 -0.228,4.308 -1.042,6.55 -0.205,0.498 -1.13,2.548 -2.778,6.149 -0.602,0.215 -1.207,0.664 -1.813,1.346 l 0.358,0.827 c -0.1,0.079 -0.665,0.578 -1.696,1.497 -0.821,0.675 -1.272,1.196 -1.354,1.565 -0.242,-0.083 -0.516,-0.134 -0.818,-0.154 -0.311,0.323 -0.77,0.763 -1.378,1.318 -0.342,-0.005 -0.74,0.009 -1.194,0.043 -0.415,0.148 -0.663,0.406 -0.744,0.774 0.297,0.235 0.598,0.424 0.904,0.57 l -0.017,0.132 c -0.31,0.323 -0.652,0.552 -1.028,0.686 -0.68,0.242 -1.494,0.042 -2.442,-0.596 -0.661,0.288 -1.042,0.474 -1.138,0.56 -0.274,0.304 -0.287,0.745 -0.038,1.326 -1.497,-0.269 -3.047,-0.029 -4.647,0.719 -0.557,-0.247 -1.387,-0.552 -2.491,-0.915 -0.453,0.161 -1.069,0.486 -1.85,0.978 -0.781,0.49 -1.397,0.815 -1.85,0.977 -0.755,0.269 -1.701,0.14 -2.846,-0.388 -1.144,-0.526 -1.834,-0.768 -2.073,-0.726 -0.227,0.08 -0.533,0.233 -0.92,0.455 -0.389,0.225 -0.64,0.355 -0.752,0.396 -0.779,-0.401 -1.541,-0.809 -2.283,-1.225 -0.511,-0.241 -1.525,-0.348 -3.044,-0.317 l -0.468,0.294 c -0.327,-0.563 -1.335,-1.244 -3.021,-2.044 -2.082,-0.957 -3.253,-1.558 -3.511,-1.808 -1.541,-1.107 -3.518,-3.406 -5.93,-6.899 -2.412,-3.493 -3.98,-6.258 -4.705,-8.293 -2,-5.613 -2.022,-11.604 -0.064,-17.97 1.956,-6.366 5.297,-11.324 10.019,-14.875 0.163,-0.016 0.563,-0.03 1.194,-0.043 0.52,0.027 0.91,-0.006 1.175,-0.101 0.565,-0.201 0.942,-0.574 1.131,-1.117 l -0.421,-0.824 c 0.972,-0.606 3.333,-1.967 7.08,-4.083 0.564,0.156 1.194,0.375 1.892,0.661 0.555,-0.111 1.239,-0.333 2.056,-0.666 1.104,-0.479 1.749,-0.751 1.938,-0.818 0.716,-0.255 1.741,-0.237 3.076,0.051 0.196,-0.282 0.561,-0.688 1.095,-1.219 l 0.133,0.017 c 0.472,0.851 1.288,1.112 2.445,0.784 0.428,-0.108 1.158,-0.083 2.194,0.079 1.033,0.162 1.664,0.203 1.891,0.123 0.414,-0.147 0.907,-1.088 1.479,-2.82 0.571,-1.733 1.141,-2.699 1.706,-2.901 0.827,-0.295 1.78,-0.007 2.854,0.862 1.074,0.87 1.771,1.756 2.095,2.662 0.295,0.829 0.24,2.165 -0.165,4.007 0.258,0.248 0.675,0.228 1.252,-0.064 l 0.442,1.244 c 0.107,0.302 0.209,0.764 0.304,1.389 0.096,0.625 0.196,1.087 0.304,1.389 0.309,0.871 0.896,1.447 1.761,1.732 z" /><path
       style="fill:#2ba0a0"
       id="path25"
       d="m 724.182,271.431 -0.628,0.922 c 0.176,1.208 0.045,2.27 -0.393,3.188 -0.612,1.022 -1.231,2.025 -1.857,3.011 -0.221,0.334 -0.354,0.973 -0.398,1.919 -0.08,1.088 -0.167,1.796 -0.262,2.126 0.067,0.188 0.234,0.297 0.5,0.329 0.126,-0.002 0.302,-0.043 0.528,-0.124 0.29,0.573 0.534,1.143 0.735,1.707 0.12,0.337 -0.012,0.681 -0.396,1.03 -0.386,0.349 -0.608,0.62 -0.668,0.81 0.067,0.188 0.183,0.454 0.348,0.797 0.165,0.344 0.268,0.572 0.308,0.684 0.509,1.428 -0.085,2.443 -1.78,3.048 -0.904,0.322 -2.017,0.359 -3.337,0.108 0.245,-0.383 0.262,-0.875 0.047,-1.476 -0.575,-0.303 -1.05,-0.622 -1.423,-0.954 -0.1,-1.827 -0.395,-4.622 -0.885,-8.385 -0.617,-3.04 -0.623,-5.323 -0.02,-6.851 -0.295,-0.827 -0.142,-1.348 0.462,-1.563 0.113,-0.04 0.655,-0.064 1.63,-0.072 0.416,-0.021 1.641,-0.161 3.673,-0.419 1.387,-0.155 2.659,-0.099 3.816,0.165 z m 44.087,-9.264 c 0.376,1.055 0.543,2.121 0.502,3.196 l -1.32,0.408 c -1.999,-0.846 -4.968,-2.207 -8.908,-4.088 l -1.85,0.529 -0.103,-0.289 c -0.515,-0.25 -1.255,-0.42 -2.22,-0.51 -1.463,-0.173 -2.239,-0.264 -2.328,-0.276 -0.429,0.109 -0.75,0.16 -0.967,0.148 -0.338,0.121 -0.561,0.392 -0.666,0.811 l 0.512,1.793 c -0.853,1.067 -1.522,2.284 -2.014,3.647 -0.537,1.593 -0.616,2.917 -0.24,3.971 0.04,0.113 0.164,0.346 0.374,0.695 2.588,4.046 4.524,7.814 5.812,11.305 0.244,0.21 0.694,0.401 1.35,0.571 0.655,0.171 1.124,0.354 1.406,0.55 0.241,0.679 0.247,1.473 0.02,2.382 -0.229,0.909 -0.624,1.527 -1.186,1.855 0.371,0.208 0.847,0.23 1.425,0.066 0.691,0.986 1.251,2.082 1.681,3.287 0.336,0.942 0.719,2.376 1.15,4.304 0.432,1.927 0.809,3.342 1.131,4.247 0.645,1.809 1.24,2.765 1.786,2.867 -0.462,0.971 -0.45,2.135 0.033,3.491 0.551,1.545 1.11,2.578 1.677,3.098 0.567,0.52 1.619,0.91 3.154,1.167 -0.201,0.031 -0.306,0.153 -0.314,0.368 -0.008,0.216 0.046,0.429 0.165,0.642 0.167,0.111 0.422,0.232 0.767,0.364 0.188,0.529 -0.635,1.141 -2.467,1.835 -1.834,0.695 -2.588,1.495 -2.267,2.399 -2.655,1.371 -7.128,3.176 -13.42,5.418 -0.457,-0.091 -1.137,-0.21 -2.038,-0.356 -0.11,-0.427 -0.041,-0.77 0.207,-1.029 -0.189,0.067 -0.355,0.074 -0.503,0.02 -0.146,-0.053 -0.228,-0.162 -0.244,-0.328 l -0.007,-0.378 c 0.381,-0.476 0.931,-1.202 1.645,-2.178 1.189,-1.783 0.759,-5.558 -1.295,-11.323 -0.336,-0.94 -0.921,-2.283 -1.753,-4.024 -0.834,-1.741 -1.411,-3.064 -1.732,-3.968 -0.175,-0.49 -0.235,-1.255 -0.18,-2.293 0.054,-1.039 -0.006,-1.802 -0.181,-2.292 -0.293,-0.107 -0.683,-0.308 -1.169,-0.602 -0.619,-1.138 -1.331,-2.838 -2.136,-5.1 -0.215,-0.602 -0.503,-2.008 -0.864,-4.214 l -0.129,0.173 -0.081,-0.227 -0.342,-0.96 -1.449,-4.07 c -0.229,-0.64 -0.439,-1.616 -0.63,-2.928 -0.191,-1.312 -0.401,-2.287 -0.63,-2.928 -0.39,-1.093 -1.247,-2.188 -2.572,-3.288 l -0.848,0.302 c -0.215,-0.603 -0.489,-1.015 -0.822,-1.236 -1.591,0.184 -2.753,0.259 -3.487,0.223 -1.315,0.003 -2.472,-0.201 -3.468,-0.612 l 1.87,-0.474 c 0.838,-1.105 1.954,-1.907 3.348,-2.403 0.753,-0.269 1.944,-0.352 3.571,-0.254 1.629,0.101 2.818,0.016 3.572,-0.253 0.828,-0.295 2.023,-1.175 3.58,-2.645 1.558,-1.467 2.507,-2.262 2.846,-2.383 0.414,-0.147 1.465,-0.149 3.15,-0.007 1.685,0.143 2.867,0.093 3.545,-0.149 0.453,-0.161 0.871,-0.416 1.257,-0.766 l -0.286,-0.981 c 0.146,-0.307 0.387,-0.521 0.727,-0.641 0.188,-0.067 0.518,-0.099 0.985,-0.097 0.468,0.004 0.784,-0.002 0.948,-0.02 0.175,0.49 0.433,0.739 0.773,0.743 0.414,-0.147 0.938,-0.557 1.569,-1.228 0.631,-0.671 1.155,-1.08 1.569,-1.228 0.49,-0.174 1.014,-0.017 1.571,0.474 -0.282,0.402 -0.597,1.009 -0.944,1.821 0.477,1.337 1.26,1.811 2.353,1.421 0.263,-0.094 0.546,-0.258 0.844,-0.492 l 0.37,1.396 c 0.067,0.189 0.2,0.291 0.396,0.306 0.196,0.015 0.406,-0.019 0.633,-0.099 0.196,-0.282 0.292,-0.613 0.283,-0.992 -0.22,-0.261 -0.546,-0.697 -0.975,-1.309 l -0.065,-0.359 c 2.156,0.206 3.671,1.534 4.543,3.984 z" /><path
       style="fill:#2ba0a0"
       id="path27"
       d="m 798.812,289.437 c 1.061,2.978 1.672,6.242 1.834,9.793 l -0.207,0.137 c -0.524,-0.279 -1.05,-0.559 -1.574,-0.841 -0.729,-0.376 -1.282,-0.562 -1.662,-0.554 -0.046,0.824 -0.352,1.336 -0.916,1.538 -0.6,-0.253 -1.493,-0.552 -2.676,-0.894 l -0.393,0.33 c -0.531,1.846 -1.037,3.703 -1.518,5.572 -0.848,2.511 -1.854,3.974 -3.022,4.39 -0.753,0.269 -1.573,0.349 -2.462,0.24 -1.028,-0.144 -1.662,-0.555 -1.904,-1.233 l 0.412,0.619 c 0.307,-1.043 0.46,-2.849 0.458,-5.418 -0.003,-2.567 -0.185,-4.36 -0.547,-5.378 -0.188,-0.527 -0.578,-1.089 -1.173,-1.685 -0.337,-0.347 -0.894,-1.613 -1.672,-3.799 -0.135,-0.376 -0.416,-0.924 -0.841,-1.644 -0.426,-0.718 -0.706,-1.266 -0.841,-1.643 -0.523,-1.47 -1.234,-3.796 -2.135,-6.979 -0.901,-3.183 -1.639,-5.583 -2.217,-7.204 -3.021,-8.479 -5.451,-13.811 -7.293,-16 -0.233,-0.299 -0.947,-0.873 -2.141,-1.721 -0.875,-0.665 -1.459,-1.413 -1.754,-2.241 -0.148,-0.414 -0.066,-0.783 0.242,-1.105 0.979,-0.349 2.511,-0.64 4.594,-0.873 2.083,-0.233 3.614,-0.522 4.594,-0.872 0.414,-0.147 0.815,-0.333 1.203,-0.556 0.107,0.302 0.447,0.478 1.018,0.529 0.405,0.068 0.83,0.129 1.274,0.183 -0.021,-0.417 0.194,-0.706 0.647,-0.867 0.149,-0.053 0.452,-0.098 0.907,-0.132 l 0.178,0.319 c -0.179,0.573 -0.358,1.169 -0.542,1.786 -0.185,0.618 -0.188,1.171 -0.014,1.661 0.174,0.49 0.486,0.952 0.938,1.385 0.53,0.533 1.021,0.72 1.474,0.559 0.453,-0.161 0.896,-0.702 1.333,-1.622 l -1.149,-0.546 c 1.239,-1.588 2.068,-2.457 2.488,-2.606 0.953,-0.34 2.006,0.984 3.156,3.971 -0.175,-0.488 -0.41,-1.021 -0.704,-1.595 2.052,7.293 4.83,15.858 8.334,25.693 0.376,1.055 1.087,2.605 2.136,4.653 1.05,2.045 1.761,3.596 2.137,4.65 z m 2.958,11.877 c 0.295,0.829 -0.519,1.585 -2.44,2.27 -0.452,0.161 -0.838,0.15 -1.158,-0.033 -0.134,-0.376 -0.367,-0.611 -0.697,-0.706 0.376,-0.134 0.817,-0.504 1.324,-1.11 0.506,-0.604 0.967,-0.98 1.381,-1.128 0.264,-0.094 0.543,-0.086 0.836,0.02 0.247,0.337 0.497,0.566 0.754,0.687 z" /><path
       style="fill:#2ba0a0"
       id="path29"
       d="m 853.871,257.337 c 2.282,6.406 1.644,13.164 -1.918,20.27 -3.563,7.107 -8.563,11.809 -15.007,14.104 -5.238,1.866 -10.416,2.65 -15.532,2.349 -5.764,-0.324 -10.669,-1.995 -14.717,-5.012 -0.513,-0.369 -0.926,-1.049 -1.237,-2.043 -3.475,-2.243 -5.654,-4.609 -6.541,-7.096 -0.279,-0.069 -0.669,-0.271 -1.17,-0.602 -1.074,-3.015 -1.375,-5.709 -0.905,-8.084 -1.047,-1.029 -1.563,-1.524 -1.549,-1.487 -1.45,-4.07 -1.386,-8.359 0.192,-12.871 1.221,-3.365 3.433,-7.167 6.636,-11.408 l 1.3,-0.463 0.894,-1.783 c 0.188,-0.066 0.526,-0.156 1.02,-0.268 0.49,-0.111 0.85,-0.208 1.075,-0.288 0.339,-0.121 1.111,-1.021 2.317,-2.704 1.205,-1.681 2.146,-2.644 2.825,-2.886 0.301,-0.107 0.758,-0.195 1.37,-0.265 0.612,-0.069 1.069,-0.158 1.37,-0.265 0.39,-0.097 0.93,-0.31 1.619,-0.641 0.688,-0.33 1.203,-0.556 1.543,-0.677 1.507,-0.537 2.976,-0.465 4.406,0.213 l 2.6,-0.926 c 0.15,-0.054 0.358,-0.127 0.623,-0.222 0.287,-0.144 0.355,-0.19 0.205,-0.137 1.435,-0.383 2.597,-0.458 3.487,-0.223 4.479,1.249 7.652,2.412 9.522,3.486 1.396,0.819 4.025,2.897 7.89,6.234 0.683,0.606 2.042,2.754 4.079,6.444 1.946,3.554 3.147,5.971 3.603,7.251 z m -8.833,19.008 c -0.202,-0.566 -0.735,-0.694 -1.603,-0.385 -0.302,0.107 -0.813,0.756 -1.534,1.948 -0.357,-0.169 -0.631,-0.518 -0.818,-1.046 -0.564,-1.583 -0.853,-4.059 -0.864,-7.431 -0.014,-3.371 -0.301,-5.848 -0.864,-7.431 -0.242,-0.679 -0.744,-1.668 -1.504,-2.969 -0.76,-1.298 -1.268,-2.308 -1.522,-3.023 -0.215,-0.603 -0.501,-1.552 -0.855,-2.848 -0.355,-1.296 -0.647,-2.264 -0.876,-2.905 -0.419,-0.105 -1.001,-0.365 -1.743,-0.781 -2.102,-3.157 -3.829,-5.387 -5.185,-6.688 -1.963,-1.933 -4.371,-3.389 -7.225,-4.369 l -1.244,0.443 c -0.229,-0.641 -0.625,-0.859 -1.189,-0.658 -0.151,0.054 -0.352,0.295 -0.603,0.724 -0.251,0.431 -0.407,0.676 -0.468,0.74 -0.378,0.134 -0.932,0.279 -1.661,0.433 -0.731,0.155 -1.286,0.298 -1.663,0.432 -0.564,0.201 -1.206,0.664 -1.925,1.387 -2.716,2.75 -4.182,4.356 -4.399,4.815 -0.049,0.104 -0.478,2.357 -1.285,6.764 -1.115,1.161 -1.516,3.852 -1.2,8.071 0.237,3.525 0.744,6.381 1.522,8.565 0.537,1.507 1.64,3.62 3.309,6.337 1.669,2.717 2.772,4.831 3.309,6.336 -0.168,0.485 -0.458,1.099 -0.873,1.84 0.267,0.033 1.193,-0.106 2.781,-0.417 1.311,-0.254 2.165,-0.239 2.563,0.042 2.391,1.823 4.77,3.673 7.136,5.546 3.348,2.247 6.039,3.008 8.074,2.283 1.318,-0.47 3.185,-2.174 5.599,-5.115 2.412,-2.94 3.425,-4.957 3.035,-6.05 l -0.564,-0.69 0.013,-0.323 c 0.457,0.092 0.911,0.057 1.363,-0.104 2.485,-0.883 3.473,-2.041 2.963,-3.473 z" /><path
       style="fill:#2ba0a0"
       id="path31"
       d="m 893.296,213.356 -0.82,1.63 c 1.594,2.447 3.144,5.781 4.646,10 0.229,0.641 0.667,1.577 1.319,2.81 0.65,1.233 1.091,2.17 1.319,2.811 0.591,1.658 0.606,4.265 0.047,7.818 0.097,0.391 0.459,0.515 1.09,0.376 0.239,-0.043 0.672,-0.197 1.299,-0.463 0.599,2.632 1.806,6.438 3.622,11.416 1.815,4.98 3.034,8.76 3.657,11.34 -0.168,1.079 -0.646,1.76 -1.438,2.042 -1.659,0.591 -4.316,-0.968 -7.972,-4.676 -0.04,-0.113 -0.094,-0.263 -0.161,-0.453 -0.119,-0.212 -0.191,-0.355 -0.218,-0.432 -0.134,-0.376 -0.04,-0.707 0.283,-0.993 -0.243,-0.083 -0.528,-0.108 -0.855,-0.077 -0.224,0.207 -0.598,0.468 -1.123,0.782 -1.009,-0.446 -2.077,-1.001 -3.203,-1.661 0.046,-0.228 0.161,-0.503 0.345,-0.823 l -0.064,-0.358 c -0.297,-0.235 -0.578,-0.368 -0.844,-0.4 -0.234,0.296 -0.488,0.599 -0.76,0.907 -0.339,0.121 -2.199,-1.105 -5.579,-3.681 -2.712,-2.006 -6.033,-3.583 -9.965,-4.729 l -0.464,-1.3 c -0.678,-0.353 -1.363,-0.725 -2.053,-1.116 -0.869,-0.412 -1.605,-0.511 -2.208,-0.296 l -0.032,-0.625 c -0.476,-0.382 -1.122,-0.768 -1.939,-1.157 -1.332,0.434 -2.301,-0.199 -2.905,-1.895 -1.818,-1.05 -3.637,-2.101 -5.454,-3.152 -3.092,-1.53 -5.242,-2.081 -6.447,-1.651 -0.404,0.653 -0.91,1.619 -1.517,2.896 0.446,0.181 0.771,0.554 0.972,1.119 -0.259,0.432 -0.586,1.122 -0.982,2.069 1.756,1.71 3.298,4.431 4.627,8.161 -0.21,0.245 -0.436,0.622 -0.679,1.133 0.457,1.281 1.265,3.074 2.425,5.378 1.202,2.418 2.029,4.204 2.482,5.357 0.229,0.642 0.52,1.578 0.873,2.811 0.355,1.233 0.627,2.112 0.814,2.64 0.523,1.469 1.525,3.15 3.007,5.043 1.22,1.52 2.453,3.012 3.697,4.479 0.281,0.791 0.063,1.549 -0.655,2.272 -0.582,0.632 -1.306,1.103 -2.172,1.411 -0.453,0.161 -1.853,0.405 -4.199,0.73 -0.979,-0.245 -1.683,-0.971 -2.112,-2.177 -0.215,-0.603 -0.247,-1.228 -0.096,-1.876 0.245,-0.979 -0.264,-3.897 -1.526,-8.755 -1.114,-4.317 -1.973,-7.324 -2.577,-9.019 -0.644,-1.809 -1.744,-4.452 -3.303,-7.931 -1.559,-3.479 -2.651,-6.104 -3.282,-7.875 -0.283,-0.792 -0.467,-2.021 -0.551,-3.69 -0.085,-1.667 -0.269,-2.898 -0.551,-3.689 -1.154,-3.24 -2.184,-4.7 -3.088,-4.378 l -0.181,-0.509 c -0.107,-0.301 -0.579,-0.791 -1.417,-1.47 -0.836,-0.678 -1.327,-1.224 -1.475,-1.64 -0.43,-1.205 0.316,-2.15 2.238,-2.835 0.414,-0.147 1.002,-0.314 1.764,-0.502 0.762,-0.185 1.256,-0.319 1.481,-0.399 0.105,-0.419 0.392,-0.988 0.856,-1.707 2.298,-0.818 4.893,-1.466 7.779,-1.943 3.631,-0.655 6.186,-0.695 7.664,-0.119 0.504,0.458 1.015,0.881 1.536,1.269 0.52,0.388 1.099,0.405 1.737,0.05 0.056,0.872 0.156,1.452 0.301,1.74 0.161,0.453 1.653,1.366 4.479,2.736 2.634,1.313 4.61,2.158 5.934,2.535 l 0.33,1.284 c 0.955,0.892 1.964,1.042 3.026,0.45 l 0.062,0.17 c 0.442,1.243 2.041,2.69 4.796,4.343 2.06,1.134 4.113,2.25 6.16,3.346 l 0.528,-0.125 c 0.348,-0.335 0.646,-0.867 0.897,-1.594 0.41,-0.994 0.67,-1.576 0.78,-1.743 -0.391,-0.497 -0.702,-1.193 -0.935,-2.086 l -0.524,-1.47 -0.201,-0.564 c -0.056,-0.277 -0.234,-0.628 -0.533,-1.052 -0.301,-0.424 -0.49,-0.75 -0.57,-0.976 -0.147,-0.414 -0.234,-1.104 -0.261,-2.073 -0.026,-0.968 -0.114,-1.658 -0.262,-2.073 -0.354,-0.042 -0.865,-0.222 -1.528,-0.538 -0.202,-0.565 -0.384,-1.434 -0.547,-2.608 -0.163,-1.172 -0.346,-2.042 -0.547,-2.607 -0.175,-0.49 -0.336,-0.941 -0.484,-1.357 0.631,-0.521 0.901,-1.254 0.809,-2.199 l -0.685,-0.137 c 1.206,-1.024 1.92,-2.298 2.142,-3.821 -0.503,-0.457 -1.063,-0.661 -1.682,-0.61 l 0.036,-0.077 c 1.042,-1.009 1.958,-1.653 2.749,-1.935 0.415,-0.148 0.98,-0.137 1.7,0.03 0.718,0.17 1.151,0.461 1.299,0.876 0.512,1.431 -0.815,2.709 -3.981,3.837 z m -29.652,10.628 c -0.389,-1.093 -1.205,-1.417 -2.449,-0.974 -1.055,0.375 -2.525,1.494 -4.41,3.354 1.194,0.254 2.451,0.146 3.77,-0.324 2.261,-0.806 3.29,-1.491 3.089,-2.056 z m 25.909,-12.733 c 0.269,0.753 -0.653,1.505 -2.763,2.256 l -0.08,-0.225 c -0.18,-0.148 -0.404,-0.302 -0.674,-0.461 -0.259,-0.842 0.179,-1.465 1.31,-1.868 1.242,-0.442 1.978,-0.342 2.207,0.298 z" /></g></svg>